<?xml version="1.0" encoding="iso-8859-1"?>
<!-- Generator: Adobe Illustrator 19.0.0, SVG Export Plug-In . SVG Version: 6.00 Build 0)  -->
<svg version="1.1" id="Layer_1" xmlns="http://www.w3.org/2000/svg" xmlns:xlink="http://www.w3.org/1999/xlink" x="0px" y="0px"
	 viewBox="0 0 1080 1080" style="enable-background:new 0 0 1080 1080;" xml:space="preserve">
<g>
	<path style="fill:#00367F;" d="M428.743,564.949l3.674,0.545c0.154,1.135,0.581,1.96,1.281,2.479
		c0.938,0.699,2.218,1.049,3.842,1.049c1.75,0,3.1-0.35,4.052-1.049c0.952-0.701,1.596-1.68,1.932-2.939
		c0.196-0.771,0.287-2.387,0.273-4.851c-1.652,1.946-3.709,2.919-6.173,2.919c-3.065,0-5.438-1.105-7.118-3.318
		c-1.68-2.211-2.52-4.863-2.52-7.957c0-2.127,0.385-4.091,1.155-5.889c0.77-1.799,1.886-3.188,3.349-4.168
		c1.462-0.98,3.181-1.47,5.154-1.47c2.631,0,4.801,1.064,6.509,3.191v-2.687h3.485v19.275c0,3.471-0.354,5.932-1.061,7.379
		c-0.707,1.449-1.826,2.594-3.359,3.434c-1.532,0.84-3.419,1.26-5.658,1.26c-2.66,0-4.808-0.598-6.446-1.795
		S428.687,567.355,428.743,564.949z M431.872,551.553c0,2.926,0.581,5.061,1.743,6.404c1.162,1.344,2.617,2.016,4.367,2.016
		c1.735,0,3.191-0.668,4.367-2.006c1.176-1.336,1.764-3.432,1.764-6.287c0-2.73-0.605-4.787-1.816-6.174
		c-1.21-1.385-2.67-2.078-4.377-2.078c-1.68,0-3.107,0.682-4.283,2.047S431.872,548.865,431.872,551.553z"/>
	<path style="fill:#00367F;" d="M468.615,555.92l3.905,0.483c-0.616,2.282-1.757,4.052-3.422,5.312
		c-1.666,1.26-3.793,1.891-6.383,1.891c-3.262,0-5.847-1.005-7.758-3.014c-1.91-2.008-2.866-4.825-2.866-8.451
		c0-3.75,0.966-6.662,2.897-8.734c1.932-2.07,4.437-3.107,7.517-3.107c2.981,0,5.417,1.015,7.307,3.044s2.834,4.885,2.834,8.566
		c0,0.225-0.007,0.561-0.021,1.008h-16.629c0.14,2.449,0.833,4.325,2.079,5.627c1.246,1.302,2.799,1.953,4.661,1.953
		c1.386,0,2.568-0.364,3.548-1.092C467.264,558.678,468.041,557.516,468.615,555.92z M456.206,549.811h12.451
		c-0.168-1.875-0.644-3.282-1.428-4.221c-1.204-1.455-2.765-2.184-4.682-2.184c-1.736,0-3.195,0.582-4.377,1.743
		C456.986,546.312,456.332,547.865,456.206,549.811z"/>
	<path style="fill:#00367F;" d="M477.265,563.102v-22.298h3.401v3.17c1.638-2.449,4.003-3.674,7.097-3.674
		c1.344,0,2.579,0.241,3.706,0.724c1.127,0.482,1.97,1.117,2.53,1.9c0.56,0.784,0.952,1.715,1.176,2.793
		c0.14,0.699,0.21,1.924,0.21,3.674v13.711h-3.779v-13.564c0-1.539-0.147-2.69-0.441-3.453c-0.294-0.764-0.815-1.372-1.564-1.826
		c-0.749-0.455-1.627-0.684-2.635-0.684c-1.61,0-2.999,0.512-4.167,1.533c-1.169,1.021-1.753,2.961-1.753,5.816v12.178H477.265z"/>
	<path style="fill:#00367F;" d="M499.773,551.952c0-4.129,1.147-7.188,3.443-9.175c1.917-1.652,4.255-2.478,7.013-2.478
		c3.065,0,5.571,1.004,7.517,3.013c1.945,2.008,2.918,4.783,2.918,8.324c0,2.87-0.43,5.127-1.292,6.771
		c-0.86,1.645-2.113,2.922-3.758,3.832c-1.645,0.91-3.44,1.365-5.386,1.365c-3.122,0-5.645-1.001-7.569-3.003
		C500.735,558.602,499.773,555.718,499.773,551.952z M503.657,551.952c0,2.855,0.623,4.993,1.869,6.415
		c1.246,1.42,2.813,2.131,4.703,2.131c1.875,0,3.436-0.715,4.682-2.143c1.246-1.428,1.869-3.604,1.869-6.529
		c0-2.758-0.626-4.847-1.879-6.268c-1.253-1.42-2.811-2.131-4.672-2.131c-1.89,0-3.458,0.707-4.703,2.121
		C504.28,546.963,503.657,549.097,503.657,551.952z"/>
	<path style="fill:#00367F;" d="M525.094,563.102v-22.298h3.401v3.17c1.638-2.449,4.003-3.674,7.097-3.674
		c1.344,0,2.579,0.241,3.706,0.724c1.127,0.482,1.97,1.117,2.53,1.9c0.56,0.784,0.952,1.715,1.176,2.793
		c0.14,0.699,0.21,1.924,0.21,3.674v13.711h-3.779v-13.564c0-1.539-0.147-2.69-0.441-3.453c-0.294-0.764-0.815-1.372-1.564-1.826
		c-0.749-0.455-1.627-0.684-2.635-0.684c-1.61,0-2.999,0.512-4.167,1.533c-1.169,1.021-1.753,2.961-1.753,5.816v12.178H525.094z"/>
	<path style="fill:#00367F;" d="M547.602,551.952c0-4.129,1.147-7.188,3.443-9.175c1.917-1.652,4.255-2.478,7.013-2.478
		c3.065,0,5.571,1.004,7.517,3.013c1.945,2.008,2.918,4.783,2.918,8.324c0,2.87-0.43,5.127-1.292,6.771
		c-0.86,1.645-2.113,2.922-3.758,3.832c-1.645,0.91-3.44,1.365-5.386,1.365c-3.122,0-5.645-1.001-7.569-3.003
		C548.564,558.602,547.602,555.718,547.602,551.952z M551.486,551.952c0,2.855,0.623,4.993,1.869,6.415
		c1.246,1.42,2.813,2.131,4.703,2.131c1.875,0,3.436-0.715,4.682-2.143c1.246-1.428,1.869-3.604,1.869-6.529
		c0-2.758-0.626-4.847-1.879-6.268c-1.253-1.42-2.811-2.131-4.672-2.131c-1.89,0-3.458,0.707-4.703,2.121
		C552.109,546.963,551.486,549.097,551.486,551.952z"/>
	<path style="fill:#00367F;" d="M579.117,563.102l-8.482-22.298h3.989l4.787,13.353c0.518,1.442,0.994,2.939,1.428,4.494
		c0.336-1.176,0.805-2.59,1.407-4.242l4.955-13.605h3.884l-8.44,22.298H579.117z"/>
	<path style="fill:#00367F;" d="M608.974,560.351c-1.4,1.19-2.747,2.03-4.042,2.52c-1.294,0.489-2.684,0.735-4.167,0.735
		c-2.45,0-4.333-0.6-5.648-1.795c-1.316-1.197-1.974-2.727-1.974-4.588c0-1.092,0.249-2.09,0.745-2.992
		c0.497-0.902,1.148-1.627,1.953-2.174c0.805-0.545,1.711-0.958,2.719-1.238c0.742-0.195,1.861-0.385,3.359-0.566
		c3.051-0.364,5.298-0.799,6.74-1.303c0.014-0.518,0.021-0.846,0.021-0.986c0-1.539-0.357-2.625-1.071-3.254
		c-0.966-0.854-2.401-1.281-4.304-1.281c-1.778,0-3.09,0.312-3.937,0.934c-0.847,0.623-1.474,1.727-1.879,3.308l-3.695-0.504
		c0.336-1.581,0.889-2.858,1.659-3.831c0.77-0.974,1.882-1.723,3.338-2.248c1.456-0.524,3.142-0.787,5.06-0.787
		c1.903,0,3.45,0.224,4.64,0.672c1.189,0.449,2.064,1.011,2.625,1.691c0.56,0.678,0.952,1.535,1.176,2.571
		c0.126,0.644,0.189,1.806,0.189,3.485v5.039c0,3.514,0.081,5.735,0.242,6.666c0.161,0.932,0.479,1.824,0.955,2.678h-3.947
		C609.337,562.317,609.085,561.4,608.974,560.351z M608.659,551.91c-1.372,0.561-3.43,1.036-6.173,1.428
		c-1.554,0.225-2.653,0.477-3.296,0.756c-0.644,0.28-1.141,0.689-1.491,1.229c-0.35,0.539-0.525,1.137-0.525,1.795
		c0,1.008,0.381,1.848,1.145,2.52c0.763,0.672,1.879,1.008,3.349,1.008c1.456,0,2.75-0.318,3.884-0.955s1.966-1.508,2.499-2.614
		c0.406-0.854,0.609-2.113,0.609-3.779V551.91z"/>
	<path style="fill:#00367F;" d="M619.409,563.102v-4.305h4.304v4.305H619.409z"/>
	<path style="fill:#00367F;" d="M644.835,554.934l3.716,0.482c-0.406,2.562-1.445,4.566-3.118,6.016
		c-1.673,1.449-3.727,2.174-6.163,2.174c-3.052,0-5.504-0.998-7.359-2.992c-1.855-1.994-2.782-4.854-2.782-8.577
		c0-2.407,0.399-4.515,1.197-6.319c0.798-1.807,2.012-3.16,3.643-4.062c1.63-0.904,3.404-1.355,5.322-1.355
		c2.421,0,4.402,0.612,5.942,1.837c1.54,1.225,2.526,2.964,2.96,5.217l-3.674,0.567c-0.35-1.497-0.969-2.624-1.858-3.38
		c-0.889-0.756-1.963-1.135-3.223-1.135c-1.904,0-3.451,0.684-4.64,2.047c-1.19,1.365-1.785,3.525-1.785,6.479
		c0,2.995,0.574,5.172,1.722,6.529c1.147,1.357,2.646,2.037,4.493,2.037c1.483,0,2.722-0.455,3.716-1.365
		C643.939,558.223,644.569,556.823,644.835,554.934z"/>
	<path style="fill:#00367F;" d="M650.378,551.952c0-4.129,1.147-7.188,3.443-9.175c1.918-1.652,4.255-2.478,7.013-2.478
		c3.065,0,5.571,1.004,7.517,3.013c1.945,2.008,2.918,4.783,2.918,8.324c0,2.87-0.43,5.127-1.291,6.771
		c-0.86,1.645-2.113,2.922-3.758,3.832c-1.646,0.91-3.44,1.365-5.386,1.365c-3.121,0-5.645-1.001-7.569-3.003
		C651.34,558.602,650.378,555.718,650.378,551.952z M654.263,551.952c0,2.855,0.622,4.993,1.868,6.415
		c1.246,1.42,2.813,2.131,4.703,2.131c1.876,0,3.437-0.715,4.683-2.143c1.245-1.428,1.868-3.604,1.868-6.529
		c0-2.758-0.627-4.847-1.879-6.268c-1.253-1.42-2.811-2.131-4.672-2.131c-1.89,0-3.457,0.707-4.703,2.121
		S654.263,549.097,654.263,551.952z"/>
	<path style="fill:#00367F;" d="M675.699,563.102v-22.298h3.381v3.128c0.7-1.092,1.631-1.971,2.793-2.635
		c1.161-0.665,2.484-0.998,3.968-0.998c1.651,0,3.006,0.343,4.062,1.029s1.803,1.645,2.236,2.877
		c1.764-2.604,4.06-3.906,6.887-3.906c2.212,0,3.912,0.612,5.103,1.837c1.189,1.225,1.784,3.111,1.784,5.658v15.307h-3.759v-14.047
		c0-1.512-0.122-2.6-0.367-3.266c-0.245-0.664-0.689-1.199-1.333-1.605s-1.399-0.609-2.268-0.609c-1.567,0-2.869,0.521-3.905,1.564
		s-1.554,2.713-1.554,5.008v12.955h-3.779v-14.488c0-1.68-0.308-2.939-0.924-3.779s-1.624-1.26-3.023-1.26
		c-1.063,0-2.047,0.281-2.95,0.84c-0.902,0.561-1.557,1.379-1.963,2.457s-0.609,2.632-0.609,4.661v11.569H675.699z"/>
</g>
<g>
	
		<linearGradient id="SVGID_1_" gradientUnits="userSpaceOnUse" x1="316.0632" y1="-1643.2349" x2="352.0632" y2="-1643.2349" gradientTransform="matrix(1 0 0 -0.0025 0 473.18)">
		<stop  offset="0" style="stop-color:#00B5D6"/>
		<stop  offset="1" style="stop-color:#A0DAE3"/>
	</linearGradient>
	<rect x="316.063" y="475.845" style="fill:url(#SVGID_1_);" width="36" height="2.886"/>
	
		<linearGradient id="SVGID_2_" gradientUnits="userSpaceOnUse" x1="320.5615" y1="-4661.103" x2="364.64" y2="-4661.103" gradientTransform="matrix(1 0 0 -0.0025 0 473.18)">
		<stop  offset="0" style="stop-color:#00B5D6"/>
		<stop  offset="1" style="stop-color:#A0DAE3"/>
	</linearGradient>
	<rect x="320.561" y="483.39" style="fill:url(#SVGID_2_);" width="44.079" height="2.886"/>
	
		<linearGradient id="SVGID_3_" gradientUnits="userSpaceOnUse" x1="330.7471" y1="-7678.9712" x2="374" y2="-7678.9712" gradientTransform="matrix(1 0 0 -0.0025 0 473.18)">
		<stop  offset="0" style="stop-color:#00B5D6"/>
		<stop  offset="1" style="stop-color:#A0DAE3"/>
	</linearGradient>
	<rect x="330.747" y="490.915" style="fill:url(#SVGID_3_);" width="43.253" height="2.924"/>
	<linearGradient id="SVGID_4_" gradientUnits="userSpaceOnUse" x1="313.2825" y1="491.0008" x2="360.3171" y2="491.0008">
		<stop  offset="0" style="stop-color:#00B5D6"/>
		<stop  offset="1" style="stop-color:#A0DAE3"/>
	</linearGradient>
	<path style="fill:url(#SVGID_4_);" d="M323.132,467.002c-16.607,10.74-10.664,20.815,6.293,28.894
		c16.957,8.079,26.572,13.782,26.572,19.104c13.985-13.782-9.441-17.52-21.358-23.999
		C322.724,484.522,311.07,477.742,323.132,467.002z"/>
	<linearGradient id="SVGID_5_" gradientUnits="userSpaceOnUse" x1="338.9656" y1="476.8129" x2="386" y2="476.8129">
		<stop  offset="0" style="stop-color:#00B5D6"/>
		<stop  offset="1" style="stop-color:#A0DAE3"/>
	</linearGradient>
	<path style="fill:url(#SVGID_5_);" d="M376.15,500.812c16.607-10.74,10.663-20.815-6.294-28.894
		c-16.957-8.079-26.572-13.782-26.572-19.104c-13.985,13.782,9.441,17.52,21.357,23.999
		C376.559,483.292,388.212,490.072,376.15,500.812z"/>
	
		<linearGradient id="SVGID_6_" gradientUnits="userSpaceOnUse" x1="316.0632" y1="-22843.2344" x2="352.0632" y2="-22843.2344" gradientTransform="matrix(1 0 0 -0.0025 0 473.18)">
		<stop  offset="0" style="stop-color:#00B5D6"/>
		<stop  offset="1" style="stop-color:#A0DAE3"/>
	</linearGradient>
	<rect x="316.063" y="528.845" style="fill:url(#SVGID_6_);" width="36" height="2.886"/>
	
		<linearGradient id="SVGID_7_" gradientUnits="userSpaceOnUse" x1="320.5615" y1="-25861.1035" x2="364.64" y2="-25861.1035" gradientTransform="matrix(1 0 0 -0.0025 0 473.18)">
		<stop  offset="0" style="stop-color:#00B5D6"/>
		<stop  offset="1" style="stop-color:#A0DAE3"/>
	</linearGradient>
	<rect x="320.561" y="536.39" style="fill:url(#SVGID_7_);" width="44.079" height="2.886"/>
	
		<linearGradient id="SVGID_8_" gradientUnits="userSpaceOnUse" x1="330.7471" y1="-28878.9707" x2="374" y2="-28878.9707" gradientTransform="matrix(1 0 0 -0.0025 0 473.18)">
		<stop  offset="0" style="stop-color:#00B5D6"/>
		<stop  offset="1" style="stop-color:#A0DAE3"/>
	</linearGradient>
	<rect x="330.747" y="543.915" style="fill:url(#SVGID_8_);" width="43.253" height="2.924"/>
	<linearGradient id="SVGID_9_" gradientUnits="userSpaceOnUse" x1="313.2825" y1="544.0008" x2="360.3171" y2="544.0008">
		<stop  offset="0" style="stop-color:#00B5D6"/>
		<stop  offset="1" style="stop-color:#A0DAE3"/>
	</linearGradient>
	<path style="fill:url(#SVGID_9_);" d="M323.132,520.002c-16.607,10.74-10.664,20.815,6.293,28.894
		c16.957,8.079,26.572,13.782,26.572,19.104c13.985-13.782-9.441-17.52-21.358-23.999
		C322.724,537.522,311.07,530.742,323.132,520.002z"/>
	<linearGradient id="SVGID_10_" gradientUnits="userSpaceOnUse" x1="338.9656" y1="529.8129" x2="386" y2="529.8129">
		<stop  offset="0" style="stop-color:#00B5D6"/>
		<stop  offset="1" style="stop-color:#A0DAE3"/>
	</linearGradient>
	<path style="fill:url(#SVGID_10_);" d="M376.15,553.812c16.607-10.74,10.663-20.815-6.294-28.894
		c-16.957-8.079-26.572-13.782-26.572-19.104c-13.985,13.782,9.441,17.52,21.357,23.999
		C376.559,536.292,388.212,543.072,376.15,553.812z"/>
</g>
<g>
	<path style="fill:#114093;stroke:#114093;stroke-width:0.75;stroke-miterlimit:10;" d="M436.431,519.18
		c-0.048,0.767,0.096,1.151,0.432,1.151c0.767,0,2.783-2.016,6.048-6.048c0.432-0.576,0.839-0.936,1.224-1.08
		c0.383-0.144,0.72-0.167,1.008-0.072c0.288,0.098,0.515,0.277,0.684,0.54c0.167,0.265,0.252,0.54,0.252,0.828
		c0,0.433-0.493,1.235-1.476,2.412c-0.984,1.176-2.149,2.412-3.492,3.708c-1.296,1.344-2.46,2.448-3.492,3.312
		c-1.033,0.863-1.812,1.296-2.34,1.296c-1.296,0-1.849-1.609-1.656-4.824l2.016-31.392c0.144-1.775-0.792-2.567-2.808-2.376
		l-6.048,0.72c-0.817,0.097-1.224-0.24-1.224-1.008c0-0.721,0.072-1.188,0.216-1.404s0.479-0.348,1.008-0.396l6.768-0.72
		c1.823-0.191,3.12,0.085,3.888,0.828c0.768,0.745,1.104,1.956,1.008,3.636L436.431,519.18z M442.047,474.468
		c0,0.336-0.108,0.66-0.324,0.972c-0.216,0.312-0.48,0.528-0.792,0.647c-0.313,0.121-0.673,0.108-1.08-0.035
		c-0.408-0.145-0.804-0.505-1.188-1.08c-0.529-0.768-1.213-1.656-2.052-2.664c-0.84-1.009-1.836-2.136-2.988-3.385
		c-1.105-1.247-2.052-2.255-2.844-3.023c-0.792-0.768-1.404-1.319-1.836-1.656c-0.672-0.432-1.08-0.839-1.224-1.224
		c-0.144-0.384-0.144-0.731,0-1.044c0.144-0.312,0.36-0.576,0.648-0.792s0.551-0.371,0.792-0.469c0.383,0,0.767,0.145,1.152,0.433
		c0.191,0.097,0.515,0.372,0.972,0.828c0.456,0.456,1.091,1.068,1.908,1.836c0.768,0.769,1.595,1.62,2.484,2.556
		c0.887,0.937,1.811,1.956,2.772,3.061c0.959,1.104,1.728,1.969,2.304,2.592c0.576,0.624,0.911,1.056,1.008,1.296
		C441.95,473.651,442.047,474.035,442.047,474.468z M460.407,489.083h-14.256c-0.816,0-1.224-0.455-1.224-1.368
		c0-0.959,0.407-1.439,1.224-1.439h15.912c1.631-2.928,2.88-5.784,3.744-8.568c0.24-0.911,0.527-1.535,0.864-1.872
		c0.144-0.191,0.36-0.348,0.648-0.468c0.288-0.119,0.587-0.155,0.9-0.107c0.312,0.048,0.576,0.156,0.792,0.323
		c0.216,0.169,0.324,0.444,0.324,0.828c0,1.104-1.368,4.393-4.104,9.864h25.92c0.528,0,0.864,0.097,1.008,0.288
		c0.144,0.144,0.216,0.601,0.216,1.368s-0.408,1.151-1.224,1.151h-27.504c-1.104,1.921-2.257,3.757-3.456,5.508
		c-1.2,1.753-2.473,3.469-3.816,5.148c0.528-0.191,1.392-0.288,2.592-0.288h23.328c2.16,0,3.6,0.385,4.32,1.152
		c0.72,0.769,1.08,2.28,1.08,4.536v13.896c0,2.544-0.336,4.104-1.008,4.68c-0.625,0.624-1.969,0.937-4.032,0.937h-24.048
		c-2.208,0-3.6-0.36-4.176-1.08c-0.529-0.673-0.792-2.232-0.792-4.68v-14.185c0-0.239,0.011-0.515,0.036-0.828
		c0.023-0.312,0.06-0.635,0.108-0.972c-0.72,0.816-1.476,1.62-2.268,2.412s-1.548,1.524-2.268,2.196
		c-0.72,0.673-1.368,1.26-1.944,1.764c-0.576,0.504-1.008,0.853-1.296,1.044c-0.864,0.673-1.512,0.864-1.944,0.576
		s-0.648-0.672-0.648-1.152c0-0.72,0.479-1.487,1.44-2.304C450.375,502.932,455.558,496.812,460.407,489.083z M458.319,471.371v6.12
		c0,0.576-0.097,0.961-0.288,1.152c-0.192,0.192-0.673,0.288-1.44,0.288c-0.72,0-1.08-0.479-1.08-1.44v-6.12h-10.008
		c-0.529,0.097-0.925-0.011-1.188-0.324c-0.264-0.312-0.396-0.647-0.396-1.008c0-0.359,0.132-0.695,0.396-1.008
		c0.263-0.312,0.659-0.42,1.188-0.324h10.008v-8.208c0-0.959,0.36-1.439,1.08-1.439c0.768,0,1.248,0.107,1.44,0.323
		c0.191,0.217,0.288,0.589,0.288,1.116v8.208h8.208c1.008,0,1.512,0.433,1.512,1.296c0,0.576-0.121,0.949-0.36,1.116
		c-0.241,0.169-0.625,0.252-1.152,0.252H458.319z M484.815,519.18v-14.328c0-0.96-0.144-1.632-0.432-2.017
		c-0.288-0.383-0.912-0.575-1.872-0.575h-23.76c-0.817,0-1.393,0.204-1.728,0.611c-0.336,0.408-0.504,1.069-0.504,1.98v14.328
		c0,1.199,0.155,1.943,0.468,2.231c0.312,0.288,0.9,0.433,1.764,0.433h23.76c0.959,0,1.584-0.145,1.872-0.433
		C484.671,521.123,484.815,520.379,484.815,519.18z M480.639,468.707v-8.64c0-0.96,0.36-1.44,1.08-1.44
		c0.767,0,1.248,0.108,1.44,0.324c0.191,0.216,0.288,0.589,0.288,1.116v8.64h9.144c0.479-0.144,0.839-0.06,1.08,0.252
		c0.24,0.313,0.36,0.673,0.36,1.08c0,0.408-0.121,0.769-0.36,1.08c-0.241,0.312-0.601,0.396-1.08,0.252h-9.144v6.408
		c0,0.576-0.097,0.961-0.288,1.152c-0.192,0.192-0.673,0.288-1.44,0.288c-0.72,0-1.08-0.479-1.08-1.44v-6.408h-7.776
		c-1.008,0-1.512-0.407-1.512-1.224c0-0.96,0.504-1.44,1.512-1.44H480.639z"/>
	<path style="fill:#114093;stroke:#114093;stroke-width:0.75;stroke-miterlimit:10;" d="M521.463,466.907h-19.296
		c-0.625,0.145-1.092,0.049-1.404-0.288c-0.313-0.335-0.468-0.72-0.468-1.151c0-0.433,0.155-0.828,0.468-1.188
		c0.312-0.36,0.779-0.468,1.404-0.324h59.328c0.623-0.144,1.08-0.036,1.368,0.324c0.288,0.36,0.432,0.756,0.432,1.188
		c0,0.432-0.144,0.816-0.432,1.151c-0.288,0.337-0.745,0.433-1.368,0.288h-19.368v55.08h21.96c0.72,0,1.176,0.096,1.368,0.288
		c0.288,0.239,0.432,0.743,0.432,1.512c0,0.768-0.601,1.152-1.8,1.152h-64.224c-1.201,0-1.8-0.385-1.8-1.152
		c0-0.769,0.132-1.26,0.396-1.476c0.263-0.216,0.731-0.324,1.404-0.324h21.6V466.907z M503.895,477.563
		c0.623,0,1.08,0.457,1.368,1.368c0.191,0.48,0.479,1.393,0.864,2.735c0.384,1.345,0.911,3.168,1.584,5.473
		c0.672,2.304,1.307,4.692,1.908,7.164c0.6,2.473,1.163,5.101,1.692,7.884c0.528,2.735,0.936,4.932,1.224,6.588
		s0.432,2.748,0.432,3.276c0,1.104-0.48,1.655-1.44,1.655c-0.96,0-1.537-0.504-1.728-1.512c-1.152-6.72-2.34-12.684-3.564-17.892
		c-1.224-5.208-2.509-9.757-3.852-13.645c-0.48-0.96-0.516-1.728-0.108-2.304C502.682,477.779,503.222,477.516,503.895,477.563z
		 M539.175,466.907h-14.76v55.08h14.76V466.907z M560.415,480.371c0,0.864-0.792,4.201-2.376,10.008
		c-1.584,5.857-3.096,10.897-4.536,15.12c-1.344,4.176-2.28,6.528-2.808,7.057c-0.336,0.432-0.708,0.673-1.116,0.72
		c-0.408,0.048-0.756-0.047-1.044-0.288c-0.288-0.239-0.48-0.587-0.576-1.044c-0.097-0.456,0.047-0.972,0.432-1.548
		c0.815-2.017,1.644-4.224,2.484-6.624c0.839-2.399,1.692-5.04,2.556-7.92c1.775-5.808,3.047-10.729,3.816-14.761
		c0.191-0.959,0.396-1.584,0.612-1.871c0.216-0.288,0.587-0.433,1.116-0.433C559.935,478.787,560.415,479.316,560.415,480.371z"/>
	<path style="fill:#114093;stroke:#114093;stroke-width:0.75;stroke-miterlimit:10;" d="M591.591,472.812
		c0,0.432-0.144,0.78-0.432,1.044c-0.288,0.265-0.648,0.396-1.08,0.396c-0.385,0-0.709-0.144-0.972-0.432
		c-0.264-0.288-0.396-0.623-0.396-1.008v-4.32h-17.064c-0.912,0-1.368-0.455-1.368-1.368c0-0.863,0.456-1.296,1.368-1.296h17.064
		v-6.048c0-0.432,0.144-0.779,0.432-1.044c0.288-0.264,0.623-0.396,1.008-0.396c0.96,0,1.44,0.48,1.44,1.44v6.048h10.08
		c0.912,0,1.368,0.433,1.368,1.296c0,0.913-0.457,1.368-1.368,1.368h-10.08V472.812z M606.639,483.827
		c0,1.584-0.409,2.82-1.224,3.708c-0.817,0.889-1.992,1.332-3.528,1.332h-24.192v10.656c0,3.696-0.624,8.448-1.872,14.256
		c-0.625,2.783-1.141,4.943-1.548,6.48c-0.408,1.535-0.708,2.471-0.9,2.808c-0.385,0.672-0.792,1.008-1.224,1.008
		c-0.768,0-1.249-0.265-1.44-0.792c-0.192-0.528-0.168-1.08,0.072-1.656c0.623-1.632,1.175-3.348,1.656-5.147
		c0.479-1.8,0.911-3.708,1.296-5.725c0.816-4.223,1.224-7.751,1.224-10.584v-19.872c0-3.503,1.512-5.256,4.536-5.256h22.392
		c3.168,0,4.752,1.753,4.752,5.256V483.827z M586.479,509.531c0,1.057-1.08,3.697-3.24,7.92c-2.16,4.224-3.697,6.336-4.608,6.336
		c-0.288,0-0.552-0.072-0.792-0.216c-0.241-0.144-0.42-0.349-0.54-0.612c-0.12-0.264-0.132-0.588-0.036-0.972
		c0.096-0.385,0.36-0.816,0.792-1.296c2.207-2.592,4.079-6.192,5.616-10.8c0.335-1.199,0.864-1.801,1.584-1.801
		C586.071,508.091,586.479,508.571,586.479,509.531z M603.687,483.684v-3.24c0-0.96-0.156-1.62-0.468-1.98
		c-0.313-0.359-0.9-0.54-1.764-0.54h-21.6c-0.864,0-1.44,0.192-1.728,0.576c-0.288,0.385-0.432,1.033-0.432,1.944v5.544h23.76
		c0.959,0,1.572-0.168,1.836-0.504C603.554,485.148,603.687,484.547,603.687,483.684z M580.863,505.499
		c-1.105,0-1.656-0.432-1.656-1.296c0-0.911,0.551-1.368,1.656-1.368h26.568c1.104,0,1.656,0.457,1.656,1.368
		c0,0.864-0.552,1.296-1.656,1.296h-12.672v19.729c0,0.959-0.48,1.439-1.44,1.439c-0.912,0-1.368-0.48-1.368-1.439v-19.729H580.863z
		 M604.047,494.483c1.104,0,1.656,0.48,1.656,1.439c0,0.913-0.552,1.368-1.656,1.368h-21.672c-1.104,0-1.656-0.455-1.656-1.368
		c0-0.959,0.551-1.439,1.656-1.439H604.047z M600.375,508.091c0.24,0,0.624,0.192,1.152,0.576c0.432,0.385,1.224,1.537,2.376,3.456
		c0.528,0.913,1.068,1.861,1.62,2.845c0.551,0.982,1.091,2.026,1.62,3.132c1.055,2.062,1.584,3.287,1.584,3.672
		c0,0.384-0.169,0.731-0.504,1.044c-0.336,0.312-0.673,0.468-1.008,0.468c-0.624,0-1.08-0.408-1.368-1.224
		c-0.913-2.257-1.884-4.32-2.916-6.192c-1.033-1.872-2.101-3.575-3.204-5.112c-0.673-0.959-0.853-1.644-0.54-2.052
		C599.499,508.296,599.895,508.091,600.375,508.091z M616.503,459.779c0-0.96,0.456-1.44,1.368-1.44c0.432,0,0.792,0.121,1.08,0.36
		c0.288,0.241,0.432,0.601,0.432,1.08v6.048h16.632c0.911,0,1.368,0.433,1.368,1.296c0,0.913-0.457,1.368-1.368,1.368h-16.632v4.392
		c0,0.433-0.144,0.769-0.432,1.009s-0.648,0.359-1.08,0.359c-0.913,0-1.368-0.455-1.368-1.368v-4.392h-9.504
		c-0.912,0-1.368-0.455-1.368-1.368c0-0.863,0.456-1.296,1.368-1.296h9.504V459.779z M630.399,483.899v36.144
		c0,1.872-0.66,3.385-1.98,4.536c-1.321,1.152-2.892,1.729-4.716,1.729c-1.825,0-4.057-0.36-6.696-1.08
		c-2.64-0.625-4.176-1.129-4.608-1.513c-0.48-0.385-0.708-0.768-0.684-1.151c0.024-0.385,0.168-0.696,0.432-0.937
		c0.263-0.24,0.587-0.408,0.972-0.504c0.383-0.097,0.695-0.048,0.936,0.145c4.176,1.296,7.103,1.943,8.784,1.943
		c1.728,0,2.927-0.3,3.6-0.899c0.672-0.601,1.008-1.789,1.008-3.564v-34.848h-17.208c-0.529,0.097-0.9-0.012-1.116-0.324
		c-0.216-0.312-0.312-0.672-0.288-1.08c0.024-0.407,0.155-0.779,0.396-1.116c0.24-0.335,0.576-0.455,1.008-0.359h17.208v-6.408
		c0-0.96,0.479-1.44,1.44-1.44c1.008,0,1.512,0.48,1.512,1.44v6.408h5.904c1.055,0,1.584,0.48,1.584,1.439
		c0,0.961-0.529,1.44-1.584,1.44H630.399z M612.183,489.516c0.384,0,0.839,0.264,1.368,0.792c0.527,0.528,1.607,2.352,3.24,5.472
		c1.68,3.168,3.048,6.312,4.104,9.432c1.152,3.168,1.728,5.232,1.728,6.192c0,0.912-0.457,1.368-1.368,1.368
		c-0.864,0-1.464-0.648-1.8-1.944c-0.336-1.392-0.781-2.855-1.332-4.392c-0.552-1.536-1.213-3.168-1.98-4.896
		c-0.769-1.775-1.573-3.456-2.412-5.04c-0.84-1.584-1.717-3.096-2.628-4.536c-0.48-0.671-0.576-1.247-0.288-1.728
		C611.103,489.756,611.559,489.516,612.183,489.516z"/>
	<path style="fill:#114093;stroke:#114093;stroke-width:0.75;stroke-miterlimit:10;" d="M648.399,521.915v-15.048
		c0-2.448,0.335-4.079,1.008-4.896c0.671-0.816,1.872-1.225,3.6-1.225h45.216c1.919,0,3.264,0.468,4.032,1.404
		c0.768,0.936,1.152,2.509,1.152,4.716v15.048h5.472c0.912,0,1.368,0.479,1.368,1.44c0,1.008-0.457,1.512-1.368,1.512h-66.024
		c-0.912,0-1.368-0.504-1.368-1.512c0-0.961,0.456-1.44,1.368-1.44H648.399z M661.575,467.556v5.256
		c0,0.912-0.504,1.368-1.512,1.368c-0.96,0-1.44-0.456-1.44-1.368v-5.256h-13.392c-0.912,0-1.368-0.479-1.368-1.44
		c0-1.008,0.456-1.512,1.368-1.512h13.392v-4.464c0-0.911,0.384-1.368,1.152-1.368c0.768,0,1.26,0.097,1.476,0.288
		c0.216,0.192,0.324,0.552,0.324,1.08v4.464h11.52c1.152,0,1.728,0.504,1.728,1.512c0,0.961-0.576,1.44-1.728,1.44H661.575z
		 M651.639,497.147c0,0.912-0.504,1.368-1.512,1.368c-0.96,0-1.44-0.456-1.44-1.368v-21.24c0-0.911,0.479-1.368,1.44-1.368
		c1.008,0,1.512,0.457,1.512,1.368V497.147z M665.535,503.556h-12.096c-1.488,0-2.232,0.912-2.232,2.735v15.624h14.328V503.556z
		 M665.823,498.012c0,0.912-0.48,1.367-1.44,1.367c-0.96,0-1.44-0.455-1.44-1.367v-23.904c0-0.911,0.479-1.368,1.44-1.368
		c0.96,0,1.44,0.457,1.44,1.368V498.012z M683.319,503.556h-15.048v18.359h15.048V503.556z M682.671,477.995h22.608
		c1.055,0,1.584,0.48,1.584,1.44c0,0.912-0.529,1.368-1.584,1.368h-24.048c-0.529,0.96-1.177,2.052-1.944,3.275
		c-0.769,1.225-1.656,2.581-2.664,4.068c-1.969,3.072-3.193,4.776-3.672,5.112c-0.432,0.432-0.84,0.647-1.224,0.647
		c-0.241-0.047-0.493-0.108-0.756-0.18c-0.265-0.072-0.457-0.24-0.576-0.504c-0.12-0.264-0.108-0.624,0.036-1.08
		s0.551-1.092,1.224-1.908c2.016-2.448,3.803-5.004,5.364-7.668c1.559-2.664,2.963-5.46,4.212-8.388
		c0.576-1.44,1.199-2.16,1.872-2.16c0.767,0,1.152,0.421,1.152,1.26C684.255,474.12,683.726,475.691,682.671,477.995z
		 M689.367,464.604v-4.32c0-0.911,0.479-1.368,1.44-1.368c0.959,0,1.44,0.457,1.44,1.368v4.32h14.328
		c0.911,0,1.368,0.504,1.368,1.512c0,0.961-0.457,1.44-1.368,1.44h-14.328v4.752c0,0.912-0.48,1.367-1.44,1.367
		c-0.961,0-1.44-0.455-1.44-1.367v-4.752h-11.16c-0.48,0-0.84-0.084-1.08-0.252c-0.241-0.168-0.36-0.564-0.36-1.188
		c0-0.576,0.108-0.972,0.324-1.188c0.216-0.217,0.587-0.324,1.116-0.324H689.367z M704.703,497.003c0,0.576-0.324,1.044-0.972,1.404
		s-1.429,0.156-2.34-0.612c-0.673-0.527-1.728-1.211-3.168-2.052c-1.44-0.839-3.265-1.859-5.472-3.06
		c-2.16-1.199-3.924-2.147-5.292-2.845c-1.368-0.695-2.34-1.14-2.916-1.332c-1.152-0.335-1.728-0.887-1.728-1.655
		c0-0.336,0.155-0.648,0.468-0.937c0.312-0.288,0.684-0.432,1.116-0.432c0.384,0,1.379,0.385,2.988,1.152
		c1.607,0.768,3.924,1.969,6.948,3.6c3.024,1.584,5.328,2.88,6.912,3.888c0.815,0.48,1.451,0.877,1.908,1.188
		c0.456,0.312,0.803,0.564,1.044,0.756c0.239,0.192,0.383,0.36,0.432,0.504C704.678,496.715,704.703,496.859,704.703,497.003z
		 M700.455,521.915v-15.624c0-1.823-0.769-2.735-2.304-2.735h-11.952v18.359H700.455z"/>
</g>
</svg>
